<svg width="20" height="20" viewBox="0 0 20 20" fill="none" xmlns="http://www.w3.org/2000/svg">
<path fill-rule="evenodd" clip-rule="evenodd" d="M2.76341 12.5359C2.40666 12.1143 1.77568 12.0618 1.35408 12.4185C0.932472 12.7752 0.879891 13.4062 1.23663 13.8278L4.46741 17.646L5.23079 18.5482L5.99418 17.646L9.22495 13.8278C9.58169 13.4062 9.52911 12.7752 9.1075 12.4185C8.68589 12.0618 8.05492 12.1143 7.69817 12.5359L6.23079 14.2701L6.23079 3C6.23079 2.44771 5.78308 2 5.23079 2C4.67851 2 4.23079 2.44771 4.23079 3L4.23079 14.2701L2.76341 12.5359Z" fill="black"/>
<path fill-rule="evenodd" clip-rule="evenodd" d="M17.2366 7.46405C17.5934 7.88566 18.2243 7.93824 18.646 7.5815C19.0676 7.22475 19.1201 6.59378 18.7634 6.17217L15.5326 2.35399L14.7692 1.4518L14.0059 2.35399L10.7751 6.17217C10.4183 6.59378 10.4709 7.22475 10.8925 7.5815C11.3141 7.93824 11.9451 7.88566 12.3019 7.46405L13.7692 5.72988L13.7692 17C13.7692 17.5523 14.217 18 14.7692 18C15.3215 18 15.7692 17.5523 15.7692 17L15.7692 5.72987L17.2366 7.46405Z" fill="black"/>
</svg>
